<svg width="240" height="240" viewBox="0 0 240 240" fill="none" xmlns="http://www.w3.org/2000/svg">
  <defs>
    <linearGradient id="selfme-v4-ink" x1="58" y1="38" x2="179" y2="198" gradientUnits="userSpaceOnUse">
      <stop stop-color="#3CC8FF"/>
      <stop offset="1" stop-color="#63B8FF"/>
    </linearGradient>
  </defs>

  <path
    d="M120 38C154.242 38 181 64.999 181 98.832C181 112.68 176.537 125.61 168.877 136H71.123C63.463 125.61 59 112.68 59 98.832C59 64.999 85.758 38 120 38Z"
    fill="url(#selfme-v4-ink)"
  />

  <path
    d="M98 88C98 80.82 103.82 75 111 75H128C134.627 75 140 80.373 140 87V87C140 93.627 134.627 99 128 99H111C103.82 99 98 93.18 98 86V88Z"
    fill="#091321"
    opacity="0.84"
  />
  <circle cx="147" cy="87" r="13" fill="#F8FBFF"/>
  <circle cx="147" cy="87" r="5" fill="#0A1628"/>

  <path
    d="M83 136C67 150 61 171 69 191"
    stroke="url(#selfme-v4-ink)"
    stroke-width="24"
    stroke-linecap="round"
    stroke-linejoin="round"
  />
  <path
    d="M108 139C100 156 99 176 105 195"
    stroke="url(#selfme-v4-ink)"
    stroke-width="19"
    stroke-linecap="round"
    stroke-linejoin="round"
  />
  <path
    d="M132 139C140 156 141 176 135 195"
    stroke="url(#selfme-v4-ink)"
    stroke-width="19"
    stroke-linecap="round"
    stroke-linejoin="round"
  />
  <path
    d="M157 136C173 150 179 171 171 191"
    stroke="url(#selfme-v4-ink)"
    stroke-width="24"
    stroke-linecap="round"
    stroke-linejoin="round"
  />

  <path
    d="M87 58C97 50 108 46 120 46C133 46 145 50 155 59"
    stroke="#A6ECFF"
    stroke-opacity="0.84"
    stroke-width="7"
    stroke-linecap="round"
  />
</svg>
